# xmcd
#
# Track frame offsets:
# 150
# 11486
# 30087
# 47957
# 72520
# 89054
# 100910
# 114940
# 129977
# 144681
#
# Disc length: 2135 seconds
#
#
# Revision: 0
# Processed by: cddbd v1.5.2PL0 Copyright (c) Steve Scherf et al.
# Submitted via: FreeRIP 2.945 
#
DISCID=8308550a
DTITLE=Reba McEntire - Christmas Collection CD 2
DYEAR=2002
DGENRE=Country
TTITLE0=Away In A Manger
TTITLE1=On This Day
TTITLE2=O Holy Night
TTITLE3=The Christmas Guest
TTITLE4=Silent Night
TTITLE5=Happy Birthday Jesus (I'll Open This One For You)
TTITLE6=White Christmas
TTITLE7=I'll Be Home For Christmas
TTITLE8=A Christmas Letter
TTITLE9=The Christmas Song
EXTD=http://www.walmart.com/catalog/product.do?product_id=4169124
EXTT0=
EXTT1=
EXTT2=
EXTT3=
EXTT4=
EXTT5=
EXTT6=
EXTT7=
EXTT8=
EXTT9=
PLAYORDER=
